<?xml version="1.0"?>
<svg width="512" height="512" viewBox="0 0 512 512" fill="none" xmlns="http://www.w3.org/2000/svg">
<path fill-rule="evenodd" stroke="black" stroke-width="5" clip-rule="evenodd" d="M193.73 41.9167L193.621 41.9166C193.108 41.9158 192.658 41.9151 192.258 42.0728C191.907 42.2107 191.597 42.4343 191.355 42.7233C191.079 43.0537 190.937 43.4808 190.776 43.9673L190.741 44.0706L170.126 105.917H85.3333H42.6666C42.2524 105.917 41.9166 106.252 41.9166 106.667C41.9166 107.081 42.2524 107.417 42.6666 107.417H84.6261L105.564 463.353L105.565 463.385C105.626 464.418 105.674 465.238 105.766 465.899C105.86 466.575 106.007 467.145 106.298 467.662C106.771 468.503 107.489 469.18 108.357 469.603C108.89 469.863 109.468 469.976 110.148 470.03C110.813 470.083 111.634 470.083 112.67 470.083H112.701H399.299H399.33C400.365 470.083 401.187 470.083 401.852 470.03C402.532 469.976 403.11 469.863 403.643 469.603C404.511 469.18 405.229 468.503 405.702 467.662C405.993 467.145 406.14 466.575 406.234 465.899C406.326 465.238 406.374 464.418 406.435 463.384L406.436 463.353L427.374 107.417H469.333C469.748 107.417 470.083 107.081 470.083 106.667C470.083 106.252 469.748 105.917 469.333 105.917H426.667H341.874L321.259 44.0706L321.224 43.9673C321.063 43.4808 320.921 43.0537 320.645 42.7233C320.403 42.4343 320.093 42.2107 319.742 42.0728C319.341 41.9151 318.892 41.9158 318.379 41.9166L318.27 41.9167H193.73ZM341.351 107.417C341.339 107.417 341.327 107.417 341.315 107.417H170.685C170.673 107.417 170.661 107.417 170.649 107.417H86.1287L107.061 463.265C107.124 464.337 107.169 465.098 107.252 465.692C107.333 466.277 107.444 466.639 107.606 466.927C107.929 467.502 108.421 467.965 109.014 468.255C109.31 468.399 109.679 468.488 110.268 468.535C110.866 468.583 111.627 468.583 112.701 468.583H399.299C400.373 468.583 401.134 468.583 401.732 468.535C402.321 468.488 402.69 468.399 402.986 468.255C403.579 467.965 404.071 467.502 404.394 466.927C404.556 466.639 404.666 466.277 404.748 465.692C404.831 465.098 404.876 464.337 404.939 463.265L425.871 107.417H341.351ZM171.707 105.917H340.293L319.835 44.5449C319.619 43.8941 319.563 43.7682 319.494 43.6855C319.414 43.5892 319.31 43.5147 319.193 43.4687C319.093 43.4293 318.956 43.4167 318.27 43.4167H193.73C193.044 43.4167 192.907 43.4293 192.807 43.4687C192.69 43.5147 192.586 43.5892 192.506 43.6855C192.437 43.7682 192.381 43.8941 192.164 44.5449L171.707 105.917ZM214.083 213.333C214.083 212.919 213.748 212.583 213.333 212.583C212.919 212.583 212.583 212.919 212.583 213.333V362.667C212.583 363.081 212.919 363.417 213.333 363.417C213.748 363.417 214.083 363.081 214.083 362.667V213.333ZM298.667 212.583C299.081 212.583 299.417 212.919 299.417 213.333V298.667C299.417 299.081 299.081 299.417 298.667 299.417C298.252 299.417 297.917 299.081 297.917 298.667V213.333C297.917 212.919 298.252 212.583 298.667 212.583Z" fill="#22272F"/>
</svg>

