<?xml version="1.0"?>
<svg width="512" height="512" viewBox="0 0 512 512" fill="none" xmlns="http://www.w3.org/2000/svg">
<path fill-rule="evenodd" stroke="black" stroke-width="5" clip-rule="evenodd" d="M316.686 43.4167C317.945 43.4167 318.452 43.4215 318.921 43.5341C319.355 43.6382 319.769 43.8099 320.15 44.0429C320.561 44.295 320.923 44.6501 321.813 45.5401L423.793 147.521C424.683 148.411 425.038 148.772 425.29 149.184C425.523 149.564 425.695 149.979 425.799 150.412C425.912 150.881 425.917 151.388 425.917 152.647V461.333C425.917 462.746 425.916 463.76 425.851 464.556C425.787 465.344 425.663 465.851 425.453 466.263C425.046 467.062 424.396 467.713 423.596 468.12C423.185 468.33 422.677 468.453 421.89 468.518C421.093 468.583 420.079 468.583 418.667 468.583H93.3334C91.9209 468.583 90.9066 468.583 90.1105 468.518C89.3231 468.453 88.8153 468.33 88.4039 468.12C87.6042 467.713 86.9541 467.062 86.5466 466.263C86.337 465.851 86.2133 465.344 86.149 464.556C86.084 463.76 86.0834 462.746 86.0834 461.333V50.6667C86.0834 49.2542 86.084 48.2399 86.149 47.4438C86.2133 46.6564 86.337 46.1486 86.5466 45.7372C86.9541 44.9375 87.6042 44.2874 88.4039 43.8799C88.8153 43.6703 89.3231 43.5466 90.1105 43.4823C90.9066 43.4173 91.9209 43.4167 93.3334 43.4167H316.686ZM319.271 42.0755C318.609 41.9165 317.914 41.9165 316.785 41.9167L316.686 41.9167H93.3334H93.2998C91.9281 41.9167 90.8527 41.9167 89.9883 41.9873C89.1082 42.0592 88.3811 42.208 87.7229 42.5434C86.641 43.0947 85.7614 43.9743 85.2101 45.0562C84.8748 45.7144 84.7259 46.4415 84.654 47.3216C84.5834 48.186 84.5834 49.2614 84.5834 50.6331V50.6667V461.333V461.367C84.5834 462.739 84.5834 463.814 84.654 464.678C84.7259 465.559 84.8748 466.286 85.2101 466.944C85.7614 468.026 86.641 468.905 87.7229 469.457C88.3811 469.792 89.1082 469.941 89.9883 470.013C90.8527 470.083 91.9282 470.083 93.3 470.083H93.3334H418.667H418.7C420.072 470.083 421.147 470.083 422.012 470.013C422.892 469.941 423.619 469.792 424.277 469.457C425.359 468.905 426.239 468.026 426.79 466.944C427.125 466.286 427.274 465.559 427.346 464.678C427.417 463.814 427.417 462.739 427.417 461.367V461.333V152.647V152.548V152.548C427.417 151.419 427.417 150.725 427.258 150.062C427.117 149.475 426.885 148.915 426.569 148.4C426.213 147.819 425.722 147.328 424.924 146.53L424.854 146.46L322.873 44.4795L322.803 44.4094C322.006 43.6114 321.514 43.1201 320.933 42.764C320.419 42.4487 319.858 42.2164 319.271 42.0755ZM298.667 52.5833C299.081 52.5833 299.417 52.9191 299.417 53.3333V167.467C299.417 168.04 299.417 168.424 299.441 168.72C299.465 169.007 299.507 169.144 299.553 169.235C299.673 169.47 299.864 169.661 300.099 169.781C300.19 169.827 300.327 169.869 300.614 169.893C300.91 169.917 301.294 169.917 301.867 169.917H416C416.414 169.917 416.75 170.253 416.75 170.667C416.75 171.082 416.414 171.417 416 171.417H301.867H301.836C301.302 171.417 300.856 171.417 300.492 171.388C300.112 171.357 299.755 171.289 299.418 171.118C298.901 170.854 298.48 170.433 298.216 169.916C298.045 169.579 297.977 169.222 297.946 168.842C297.917 168.478 297.917 168.033 297.917 167.499V167.498V167.467V53.3333C297.917 52.9191 298.252 52.5833 298.667 52.5833ZM256 233.917C256.414 233.917 256.75 234.252 256.75 234.667V360.856L308.803 308.803C309.096 308.51 309.571 308.51 309.864 308.803C310.157 309.096 310.157 309.571 309.864 309.864L256.53 363.197C256.237 363.49 255.763 363.49 255.47 363.197L202.136 309.864C201.843 309.571 201.843 309.096 202.136 308.803C202.429 308.51 202.904 308.51 203.197 308.803L255.25 360.856V234.667C255.25 234.252 255.586 233.917 256 233.917Z" fill="#22272F"/>
</svg>



