<?xml version="1.0"?>

<svg width="512px" height="512px" viewBox="0 0 512 512" fill="none" xmlns="http://www.w3.org/2000/svg" style="enable-background:new 0 0 512.001 512.001;">
<path fill-rule="evenodd" clip-rule="evenodd" d="M107.417 42.6667C107.417 42.2525 107.081 41.9167 106.667 41.9167C106.252 41.9167 105.917 42.2525 105.917 42.6667V85.3334V320V469.333C105.917 469.748 106.252 470.083 106.667 470.083C107.081 470.083 107.417 469.748 107.417 469.333V320.586L171.607 304.538C179.235 302.631 182.932 301.712 186.61 301.677C189.889 301.647 193.152 302.132 196.28 303.116C199.789 304.22 203.057 306.176 209.8 310.221L278.088 351.194L278.204 351.264C285.521 355.654 289.312 357.929 293.404 359.113C297.029 360.163 300.808 360.577 304.575 360.339C308.826 360.071 313.02 358.673 321.114 355.975L321.244 355.932L426.904 320.712C427.21 320.61 427.417 320.323 427.417 320V85.3334C427.417 85.0923 427.301 84.8659 427.105 84.725C426.91 84.584 426.658 84.5457 426.429 84.6219L320.77 119.842C312.515 122.593 308.514 123.921 304.481 124.176C300.886 124.403 297.28 124.007 293.821 123.006C289.939 121.882 286.321 119.718 278.86 115.241L210.571 74.2683L210.466 74.2052L210.466 74.2052C203.854 70.2379 200.428 68.1823 196.73 67.019C193.452 65.9876 190.032 65.4787 186.596 65.5108C182.719 65.5471 178.843 66.5162 171.362 68.3864L171.362 68.3864L171.244 68.4161L107.417 84.3728V42.6667Z" fill="#22272F"/>
</svg>