<?xml version="1.0"?>
<svg width="512" height="512" viewBox="0 0 512 512" fill="none" xmlns="http://www.w3.org/2000/svg">
<path fill-rule="evenodd" stroke="black" stroke-width="5" clip-rule="evenodd" d="M175.467 20.5834H175.435C174.622 20.5834 173.966 20.5834 173.435 20.6267C172.889 20.6714 172.408 20.7658 171.964 20.9921C171.259 21.3516 170.685 21.9253 170.325 22.6309C170.099 23.0751 170.005 23.5553 169.96 24.1019C169.917 24.6328 169.917 25.2883 169.917 26.101V26.1011V26.1012V26.1013V26.1334V63.25H93.3307H93.2971H93.2971H93.297H93.297C91.9253 63.25 90.8499 63.25 89.9856 63.3207C89.1055 63.3926 88.3784 63.5414 87.7202 63.8768C86.6383 64.428 85.7587 65.3077 85.2074 66.3896C84.8721 67.0477 84.7232 67.7748 84.6513 68.655C84.5807 69.5193 84.5807 70.5948 84.5807 71.9665V72.0001V461.333V461.367C84.5807 462.739 84.5807 463.814 84.6513 464.678C84.7232 465.559 84.8721 466.286 85.2074 466.944C85.7587 468.026 86.6383 468.905 87.7202 469.457C88.3784 469.792 89.1055 469.941 89.9856 470.013C90.85 470.083 91.9255 470.083 93.2973 470.083H93.3307H418.664H418.697C420.069 470.083 421.145 470.083 422.009 470.013C422.889 469.941 423.616 469.792 424.274 469.457C425.356 468.905 426.236 468.026 426.787 466.944C427.123 466.286 427.272 465.559 427.343 464.678C427.414 463.814 427.414 462.739 427.414 461.367V461.333V72V71.9667C427.414 70.5949 427.414 69.5194 427.343 68.655C427.272 67.7748 427.123 67.0477 426.787 66.3896C426.236 65.3077 425.356 64.428 424.274 63.8768C423.616 63.5414 422.889 63.3926 422.009 63.3207C421.145 63.25 420.069 63.25 418.698 63.25H418.664H342.083V26.1334V26.1015C342.083 25.2885 342.083 24.6329 342.04 24.1019C341.995 23.5553 341.901 23.0751 341.675 22.6309C341.315 21.9253 340.741 21.3516 340.036 20.9921C339.592 20.7658 339.111 20.6714 338.565 20.6267C338.034 20.5834 337.378 20.5834 336.565 20.5834H336.533H175.467ZM340.583 63.25H329.14C328.726 63.25 328.39 63.5858 328.39 64C328.39 64.4143 328.726 64.75 329.14 64.75H340.583V101.867C340.583 102.719 340.583 103.313 340.545 103.776C340.508 104.23 340.439 104.491 340.338 104.688C340.122 105.112 339.778 105.456 339.355 105.671C339.157 105.772 338.897 105.841 338.443 105.878C337.98 105.916 337.386 105.917 336.533 105.917H175.467C174.614 105.917 174.02 105.916 173.557 105.878C173.103 105.841 172.843 105.772 172.645 105.671C172.222 105.456 171.878 105.112 171.662 104.688C171.561 104.491 171.492 104.23 171.455 103.776C171.417 103.313 171.417 102.719 171.417 101.867V64.75H182.855C183.269 64.75 183.605 64.4143 183.605 64C183.605 63.5858 183.269 63.25 182.855 63.25H171.417V26.1334C171.417 25.2809 171.417 24.6867 171.455 24.2241C171.492 23.7702 171.561 23.5094 171.662 23.3119C171.878 22.8885 172.222 22.5443 172.645 22.3286C172.843 22.228 173.103 22.1588 173.557 22.1218C174.02 22.084 174.614 22.0834 175.467 22.0834H336.533C337.386 22.0834 337.98 22.084 338.443 22.1218C338.897 22.1588 339.157 22.228 339.355 22.3286C339.778 22.5443 340.122 22.8885 340.338 23.3119C340.439 23.5094 340.508 23.7702 340.545 24.2241C340.583 24.6867 340.583 25.2809 340.583 26.1334V63.25ZM169.917 64.75V101.867V101.899V101.899V101.899V101.899C169.917 102.712 169.917 103.367 169.96 103.898C170.005 104.445 170.099 104.925 170.325 105.369C170.685 106.075 171.259 106.648 171.964 107.008C172.408 107.234 172.889 107.329 173.435 107.373C173.966 107.417 174.622 107.417 175.434 107.417H175.435H175.435H175.435H175.467H336.533H336.565C337.378 107.417 338.034 107.417 338.565 107.373C339.111 107.329 339.592 107.234 340.036 107.008C340.741 106.648 341.315 106.075 341.675 105.369C341.901 104.925 341.995 104.445 342.04 103.898C342.083 103.367 342.083 102.712 342.083 101.899V101.867V64.75H418.664C420.077 64.75 421.091 64.7506 421.887 64.8157C422.674 64.88 423.182 65.0036 423.594 65.2133C424.393 65.6207 425.043 66.2709 425.451 67.0706C425.66 67.482 425.784 67.9897 425.848 68.7771C425.913 69.5733 425.914 70.5875 425.914 72V461.333C425.914 462.746 425.913 463.76 425.848 464.556C425.784 465.344 425.66 465.851 425.451 466.263C425.043 467.063 424.393 467.713 423.594 468.12C423.182 468.33 422.674 468.453 421.887 468.518C421.091 468.583 420.077 468.583 418.664 468.583H93.3307C91.9182 468.583 90.9039 468.583 90.1078 468.518C89.3204 468.453 88.8127 468.33 88.4012 468.12C87.6015 467.713 86.9514 467.063 86.5439 466.263C86.3343 465.851 86.2107 465.344 86.1463 464.556C86.0813 463.76 86.0807 462.746 86.0807 461.333V72.0001C86.0807 70.5875 86.0813 69.5733 86.1463 68.7771C86.2107 67.9897 86.3343 67.482 86.5439 67.0706C86.9514 66.2709 87.6015 65.6207 88.4012 65.2133C88.8127 65.0036 89.3204 64.88 90.1078 64.8157C90.9039 64.7506 91.9182 64.75 93.3307 64.75H169.917ZM191.247 234.667C191.247 234.252 191.583 233.917 191.997 233.917H319.997C320.412 233.917 320.747 234.252 320.747 234.667C320.747 235.081 320.412 235.417 319.997 235.417H191.997C191.583 235.417 191.247 235.081 191.247 234.667ZM191.997 319.25C191.583 319.25 191.247 319.586 191.247 320C191.247 320.414 191.583 320.75 191.997 320.75H277.331C277.745 320.75 278.081 320.414 278.081 320C278.081 319.586 277.745 319.25 277.331 319.25H191.997Z" fill="#22272F"/>
</svg>
